<?xml version="1.0" encoding="utf-8"?>
<svg xmlns="http://www.w3.org/2000/svg" viewBox="71.7524 69.3197 356.493 361.361" width="356.493px" height="361.361px"><g id="object-0"><path d="M 194.008 153.503 C 194.108 153.527 194.208 153.551 194.308 153.575 C 194.408 153.599 194.508 153.623 194.609 153.648 C 194.709 153.672 194.81 153.696 194.911 153.721 C 195.012 153.745 195.112 153.769 195.213 153.793 C 195.314 153.817 195.415 153.841 195.517 153.866 C 195.618 153.89 195.72 153.915 195.822 153.94 C 195.924 153.964 196.026 153.989 196.129 154.014 C 196.231 154.039 196.334 154.064 196.437 154.089 C 198.097 154.508 199.734 154.991 201.349 155.533 C 202.964 156.075 204.556 156.675 206.125 157.327 C 207.695 157.98 209.242 158.685 210.767 159.437 C 212.292 160.189 213.796 160.989 215.277 161.829 C 216.758 162.669 218.217 163.55 219.654 164.466 C 221.091 165.382 222.507 166.333 223.901 167.314 C 225.295 168.295 226.668 169.305 228.019 170.338 C 229.37 171.371 230.7 172.428 232.008 173.503 C 232.142 173.606 232.259 173.697 232.364 173.777 C 232.469 173.858 232.56 173.928 232.644 173.993 C 232.728 174.058 232.804 174.116 232.875 174.171 C 232.947 174.226 233.014 174.278 233.082 174.33 C 233.149 174.382 233.217 174.434 233.29 174.49 C 233.362 174.546 233.439 174.605 233.524 174.67 C 233.609 174.736 233.703 174.808 233.81 174.89 C 233.916 174.973 234.036 175.065 234.172 175.171 C 234.969 175.815 235.74 176.482 236.487 177.168 C 237.234 177.854 237.958 178.561 238.661 179.284 C 239.365 180.008 240.049 180.748 240.716 181.503 C 241.384 182.258 242.036 183.026 242.675 183.806 C 243.315 184.585 243.942 185.376 244.562 186.175 C 245.181 186.974 245.792 187.781 246.397 188.593 C 247.003 189.405 247.604 190.222 248.205 191.042 C 248.805 191.862 249.405 192.683 250.007 193.504 C 250.099 193.392 250.191 193.28 250.284 193.169 C 250.376 193.057 250.469 192.945 250.561 192.833 C 250.654 192.721 250.746 192.609 250.839 192.496 C 250.932 192.384 251.024 192.271 251.117 192.159 C 251.21 192.047 251.303 191.934 251.397 191.82 C 251.49 191.707 251.584 191.593 251.678 191.48 C 251.772 191.366 251.866 191.252 251.961 191.138 C 252.056 191.024 252.15 190.909 252.245 190.793 C 253.801 188.929 255.375 187.099 256.973 185.31 C 258.572 183.521 260.197 181.773 261.855 180.074 C 263.513 178.375 265.205 176.725 266.937 175.133 C 268.67 173.54 270.444 172.004 272.267 170.533 C 274.091 169.062 275.963 167.656 277.892 166.323 C 279.821 164.99 281.808 163.73 283.859 162.55 C 285.91 161.371 288.026 160.271 290.215 159.261 C 292.404 158.251 294.665 157.329 297.007 156.504 C 297.131 156.546 297.255 156.587 297.379 156.628 C 297.503 156.669 297.626 156.71 297.75 156.752 C 297.874 156.794 297.998 156.835 298.123 156.876 C 298.247 156.917 298.372 156.958 298.496 157 C 298.62 157.042 298.745 157.083 298.871 157.125 C 298.996 157.167 299.122 157.209 299.247 157.251 C 299.373 157.293 299.499 157.335 299.626 157.377 C 299.753 157.419 299.88 157.461 300.007 157.504 C 300.009 157.58 300.012 157.655 300.014 157.731 C 300.016 157.807 300.019 157.882 300.021 157.957 C 300.023 158.033 300.026 158.108 300.028 158.184 C 300.03 158.26 300.033 158.335 300.035 158.411 C 300.037 158.487 300.04 158.563 300.042 158.64 C 300.044 158.716 300.047 158.793 300.049 158.869 C 300.051 158.946 300.054 159.023 300.057 159.1 C 300.06 159.177 300.062 159.255 300.065 159.333 C 300.128 161.357 300.182 163.127 300.235 164.707 C 300.288 166.287 300.338 167.678 300.393 168.941 C 300.448 170.204 300.506 171.34 300.573 172.411 C 300.64 173.482 300.717 174.489 300.808 175.495 C 300.9 176.501 301.007 177.504 301.135 178.569 C 301.263 179.634 301.412 180.76 301.587 182.01 C 301.762 183.261 301.964 184.635 302.199 186.196 C 302.433 187.757 302.7 189.506 303.005 191.504 C 302.858 191.599 302.729 191.682 302.614 191.757 C 302.499 191.832 302.398 191.897 302.305 191.957 C 302.213 192.016 302.13 192.07 302.051 192.121 C 301.972 192.172 301.898 192.22 301.824 192.268 C 301.749 192.316 301.675 192.364 301.596 192.416 C 301.517 192.467 301.433 192.522 301.339 192.582 C 301.245 192.643 301.142 192.709 301.025 192.785 C 300.908 192.861 300.776 192.946 300.626 193.043 C 298.816 194.229 297.038 195.445 295.304 196.7 C 293.57 197.955 291.88 199.249 290.247 200.59 C 288.614 201.931 287.038 203.32 285.531 204.764 C 284.024 206.208 282.586 207.708 281.23 209.271 C 279.874 210.835 278.6 212.462 277.42 214.161 C 276.24 215.86 275.155 217.632 274.177 219.484 C 273.199 221.336 272.327 223.268 271.576 225.29 C 270.824 227.311 270.192 229.422 269.692 231.629 C 269.649 231.869 269.612 232.079 269.579 232.266 C 269.546 232.453 269.517 232.618 269.49 232.769 C 269.464 232.919 269.44 233.054 269.417 233.182 C 269.394 233.31 269.373 233.431 269.351 233.552 C 269.329 233.673 269.308 233.795 269.285 233.924 C 269.262 234.053 269.238 234.191 269.211 234.343 C 269.184 234.496 269.154 234.664 269.12 234.854 C 269.086 235.045 269.048 235.259 269.005 235.503 C 269.162 235.537 269.32 235.57 269.477 235.604 C 269.634 235.638 269.791 235.671 269.949 235.705 C 270.107 235.739 270.264 235.772 270.422 235.806 C 270.58 235.84 270.738 235.873 270.897 235.907 C 271.056 235.941 271.214 235.974 271.373 236.008 C 271.532 236.042 271.692 236.076 271.852 236.11 C 272.012 236.144 272.172 236.178 272.333 236.213 C 272.494 236.247 272.655 236.282 272.817 236.316 C 272.92 236.34 273.024 236.364 273.127 236.387 C 273.23 236.411 273.334 236.434 273.437 236.458 C 273.54 236.482 273.644 236.506 273.748 236.53 C 273.852 236.554 273.956 236.577 274.061 236.601 C 274.165 236.624 274.27 236.648 274.375 236.672 C 274.48 236.696 274.584 236.72 274.689 236.744 C 274.794 236.768 274.9 236.792 275.005 236.817 C 275.111 236.841 275.217 236.866 275.324 236.89 C 275.541 236.94 275.759 236.99 275.977 237.039 C 276.195 237.088 276.412 237.137 276.63 237.186 C 276.848 237.234 277.066 237.283 277.284 237.331 C 277.502 237.379 277.72 237.426 277.938 237.473 C 278.156 237.52 278.374 237.567 278.593 237.614 C 278.811 237.66 279.03 237.707 279.247 237.752 C 279.466 237.798 279.684 237.843 279.903 237.889 C 280.122 237.934 280.34 237.979 280.558 238.023 C 283.363 238.668 286.115 239.521 288.806 240.557 C 291.498 241.593 294.129 242.811 296.693 244.186 C 299.257 245.561 301.754 247.095 304.176 248.76 C 306.598 250.426 308.946 252.223 311.211 254.128 C 313.477 256.033 315.66 258.045 317.755 260.138 C 319.85 262.231 321.855 264.406 323.764 266.638 C 325.673 268.87 327.486 271.158 329.195 273.477 C 330.904 275.796 332.51 278.147 334.004 280.504 C 334.477 281.323 334.93 282.135 335.364 282.944 C 335.798 283.752 336.214 284.557 336.611 285.361 C 337.008 286.165 337.388 286.969 337.75 287.776 C 338.112 288.583 338.457 289.392 338.785 290.208 C 339.114 291.024 339.427 291.846 339.723 292.677 C 340.02 293.508 340.302 294.349 340.569 295.203 C 340.836 296.056 341.088 296.923 341.327 297.805 C 341.566 298.687 341.791 299.586 342.004 300.504 C 339.538 300.589 337.187 300.641 334.932 300.638 C 332.677 300.635 330.518 300.578 328.435 300.448 C 326.353 300.318 324.347 300.114 322.399 299.817 C 320.451 299.521 318.561 299.132 316.71 298.631 C 314.858 298.13 313.046 297.517 311.253 296.773 C 309.46 296.029 307.686 295.153 305.913 294.126 C 304.14 293.1 302.367 291.923 300.576 290.576 C 298.785 289.229 296.976 287.712 295.129 286.005 C 294.23 285.186 293.319 284.403 292.396 283.652 C 291.472 282.901 290.536 282.182 289.586 281.493 C 288.636 280.804 287.674 280.143 286.697 279.508 C 285.721 278.873 284.731 278.264 283.728 277.677 C 282.724 277.09 281.707 276.526 280.676 275.981 C 279.645 275.436 278.599 274.91 277.539 274.4 C 276.479 273.89 275.405 273.396 274.316 272.915 C 273.227 272.434 272.123 271.965 271.004 271.505 C 271.48 273.267 272.046 274.99 272.695 276.671 C 273.344 278.353 274.078 279.994 274.889 281.591 C 275.699 283.188 276.588 284.741 277.547 286.247 C 278.506 287.753 279.537 289.213 280.632 290.623 C 281.728 292.034 282.888 293.395 284.107 294.703 C 285.326 296.012 286.605 297.269 287.936 298.471 C 289.267 299.673 290.65 300.82 292.08 301.91 C 293.51 303 294.986 304.032 296.503 305.005 C 298.412 306.099 300.358 307.099 302.335 308.003 C 304.312 308.907 306.321 309.715 308.356 310.426 C 310.391 311.138 312.452 311.753 314.535 312.27 C 316.618 312.788 318.722 313.208 320.842 313.531 C 322.962 313.853 325.098 314.077 327.245 314.202 C 329.392 314.327 331.55 314.353 333.713 314.28 C 335.876 314.206 338.046 314.033 340.216 313.759 C 342.386 313.485 344.556 313.11 346.722 312.634 C 348.628 312.117 350.503 311.529 352.339 310.87 C 354.176 310.211 355.974 309.482 357.73 308.68 C 359.486 307.878 361.197 307.003 362.86 306.056 C 364.523 305.108 366.136 304.087 367.694 302.991 C 369.252 301.896 370.756 300.726 372.199 299.481 C 373.642 298.236 375.024 296.915 376.34 295.518 C 377.656 294.121 378.905 292.648 380.082 291.098 C 381.259 289.548 382.364 287.92 383.391 286.214 C 383.776 285.541 384.155 284.868 384.526 284.194 C 384.897 283.52 385.261 282.844 385.617 282.166 C 385.973 281.488 386.321 280.808 386.66 280.124 C 386.999 279.44 387.33 278.753 387.651 278.062 C 387.972 277.371 388.284 276.675 388.585 275.975 C 388.887 275.274 389.178 274.569 389.458 273.857 C 389.739 273.145 390.008 272.427 390.266 271.702 C 390.524 270.977 390.77 270.245 391.004 269.505 C 391.069 269.324 391.126 269.165 391.176 269.023 C 391.227 268.881 391.271 268.756 391.312 268.642 C 391.353 268.529 391.389 268.426 391.424 268.329 C 391.458 268.232 391.491 268.141 391.523 268.049 C 391.555 267.958 391.588 267.865 391.623 267.767 C 391.658 267.669 391.695 267.565 391.737 267.45 C 391.778 267.335 391.823 267.207 391.875 267.063 C 391.927 266.918 391.984 266.756 392.05 266.571 C 392.507 264.953 392.89 263.257 393.201 261.504 C 393.512 259.751 393.75 257.941 393.915 256.095 C 394.08 254.249 394.172 252.367 394.191 250.469 C 394.21 248.572 394.157 246.659 394.03 244.753 C 393.903 242.846 393.703 240.946 393.431 239.072 C 393.158 237.199 392.813 235.352 392.394 233.554 C 391.976 231.756 391.484 230.005 390.919 228.323 C 390.354 226.641 389.716 225.028 389.004 223.505 C 388.931 223.335 388.867 223.186 388.81 223.053 C 388.753 222.92 388.703 222.803 388.657 222.696 C 388.611 222.589 388.57 222.493 388.531 222.402 C 388.492 222.311 388.455 222.225 388.419 222.139 C 388.382 222.053 388.345 221.967 388.306 221.875 C 388.267 221.783 388.225 221.686 388.178 221.577 C 388.131 221.469 388.08 221.349 388.022 221.213 C 387.964 221.077 387.898 220.925 387.824 220.751 C 387.43 219.932 387.017 219.139 386.586 218.37 C 386.155 217.6 385.706 216.853 385.241 216.124 C 384.775 215.394 384.294 214.683 383.796 213.987 C 383.299 213.291 382.786 212.609 382.259 211.937 C 381.732 211.265 381.19 210.604 380.636 209.95 C 380.082 209.296 379.515 208.648 378.937 208.003 C 378.358 207.358 377.768 206.716 377.168 206.072 C 376.567 205.429 375.956 204.784 375.336 204.135 C 374.299 203.046 373.295 201.916 372.331 200.748 C 371.367 199.58 370.445 198.374 369.571 197.133 C 368.697 195.893 367.872 194.617 367.104 193.31 C 366.336 192.003 365.626 190.664 364.981 189.297 C 364.336 187.93 363.756 186.535 363.25 185.114 C 362.744 183.694 362.312 182.248 361.961 180.781 C 361.611 179.313 361.342 177.824 361.163 176.316 C 360.984 174.808 360.896 173.281 360.906 171.739 C 360.906 171.628 360.907 171.517 360.907 171.406 C 360.907 171.295 360.908 171.184 360.908 171.072 C 360.909 170.961 360.909 170.849 360.909 170.737 C 360.909 170.625 360.909 170.514 360.91 170.402 C 360.91 170.29 360.911 170.178 360.911 170.065 C 360.911 169.952 360.912 169.84 360.912 169.727 C 360.912 169.614 360.913 169.5 360.913 169.387 C 360.913 169.273 360.914 169.159 360.914 169.044 C 360.915 168.929 360.916 168.814 360.917 168.699 C 360.918 168.584 360.919 168.469 360.92 168.353 C 360.921 168.238 360.922 168.122 360.923 168.007 C 360.924 167.892 360.925 167.776 360.926 167.66 C 360.927 167.544 360.928 167.428 360.929 167.311 C 360.93 167.194 360.931 167.078 360.932 166.961 C 360.933 166.844 360.934 166.727 360.935 166.609 C 360.936 166.491 360.937 166.373 360.939 166.255 C 360.939 166.138 360.94 166.021 360.941 165.904 C 360.942 165.787 360.942 165.67 360.943 165.553 C 360.943 165.436 360.944 165.319 360.945 165.201 C 360.946 165.083 360.947 164.966 360.947 164.848 C 360.948 164.73 360.948 164.612 360.949 164.493 C 360.95 164.374 360.95 164.256 360.951 164.137 C 360.951 164.018 360.952 163.899 360.953 163.779 C 360.953 163.659 360.954 163.539 360.954 163.419 C 360.955 163.131 360.957 162.843 360.959 162.555 C 360.961 162.267 360.962 161.978 360.964 161.69 C 360.966 161.402 360.967 161.114 360.969 160.826 C 360.971 160.538 360.973 160.25 360.975 159.962 C 360.977 159.674 360.979 159.386 360.981 159.098 C 360.983 158.81 360.985 158.522 360.988 158.233 C 360.99 157.945 360.993 157.657 360.995 157.369 C 360.997 157.081 361 156.793 361.002 156.505 C 361.832 156.642 362.639 156.794 363.427 156.963 C 364.215 157.131 364.984 157.316 365.739 157.517 C 366.493 157.719 367.232 157.937 367.96 158.173 C 368.688 158.409 369.405 158.662 370.116 158.934 C 370.827 159.206 371.53 159.497 372.231 159.806 C 372.932 160.116 373.629 160.444 374.327 160.793 C 375.025 161.142 375.725 161.51 376.43 161.899 C 377.135 162.288 377.845 162.698 378.564 163.13 C 378.699 163.209 378.818 163.278 378.924 163.34 C 379.03 163.402 379.123 163.456 379.208 163.505 C 379.293 163.555 379.37 163.599 379.442 163.641 C 379.514 163.683 379.583 163.723 379.651 163.762 C 379.719 163.802 379.788 163.841 379.861 163.884 C 379.934 163.927 380.011 163.972 380.098 164.022 C 380.184 164.072 380.279 164.127 380.387 164.19 C 380.495 164.253 380.616 164.323 380.754 164.403 C 380.973 164.531 381.192 164.659 381.411 164.788 C 381.63 164.916 381.85 165.045 382.069 165.173 C 382.288 165.302 382.507 165.43 382.725 165.559 C 382.944 165.688 383.162 165.817 383.381 165.947 C 383.6 166.076 383.818 166.206 384.037 166.335 C 384.256 166.465 384.474 166.594 384.693 166.724 C 384.911 166.854 385.13 166.984 385.348 167.114 C 385.566 167.244 385.785 167.374 386.003 167.505 C 386.387 167.731 386.863 168.075 387.406 168.505 C 387.949 168.936 388.56 169.454 389.214 170.031 C 389.868 170.608 390.565 171.242 391.281 171.905 C 391.997 172.568 392.732 173.261 393.462 173.953 C 394.192 174.646 394.917 175.338 395.612 176 C 396.307 176.662 396.973 177.295 397.586 177.868 C 398.198 178.442 398.757 178.957 399.237 179.384 C 399.718 179.811 400.12 180.15 400.421 180.372 C 402.267 181.897 404.025 183.572 405.691 185.371 C 407.357 187.17 408.932 189.094 410.414 191.117 C 411.896 193.14 413.284 195.262 414.578 197.459 C 415.871 199.656 417.07 201.927 418.171 204.248 C 419.272 206.569 420.277 208.938 421.183 211.332 C 422.089 213.726 422.895 216.144 423.601 218.561 C 424.306 220.978 424.911 223.394 425.413 225.784 C 425.915 228.174 426.314 230.539 426.609 232.852 C 426.64 233.18 426.668 233.466 426.694 233.721 C 426.72 233.976 426.745 234.199 426.772 234.4 C 426.798 234.6 426.826 234.778 426.859 234.941 C 426.891 235.105 426.928 235.255 426.971 235.4 C 427.014 235.545 427.065 235.686 427.125 235.831 C 427.185 235.976 427.255 236.126 427.338 236.29 C 427.42 236.453 427.516 236.63 427.626 236.829 C 427.736 237.029 427.861 237.251 428.004 237.505 C 428.213 240.887 428.286 244.234 428.224 247.546 C 428.162 250.858 427.966 254.134 427.634 257.373 C 427.302 260.612 426.834 263.814 426.232 266.979 C 425.629 270.144 424.891 273.271 424.016 276.359 C 423.142 279.448 422.132 282.497 420.987 285.507 C 419.841 288.517 418.56 291.488 417.142 294.418 C 415.724 297.348 414.171 300.238 412.481 303.086 C 410.791 305.934 408.966 308.741 407.004 311.506 C 406.921 311.63 406.839 311.754 406.756 311.877 C 406.674 312.001 406.591 312.125 406.508 312.249 C 406.425 312.373 406.343 312.497 406.26 312.622 C 406.177 312.746 406.094 312.871 406.01 312.995 C 405.927 313.12 405.844 313.245 405.76 313.37 C 405.676 313.495 405.593 313.621 405.509 313.746 C 405.425 313.872 405.341 313.998 405.256 314.125 C 405.172 314.252 405.087 314.379 405.003 314.506 C 404.885 314.66 404.781 314.801 404.688 314.929 C 404.595 315.058 404.512 315.174 404.437 315.282 C 404.362 315.39 404.293 315.489 404.229 315.581 C 404.165 315.673 404.104 315.759 404.043 315.84 C 403.982 315.921 403.922 315.998 403.859 316.074 C 403.796 316.149 403.729 316.222 403.656 316.296 C 403.583 316.37 403.503 316.445 403.413 316.523 C 403.323 316.601 403.223 316.682 403.11 316.769 C 402.731 317.127 402.189 317.619 401.515 318.217 C 400.84 318.815 400.033 319.518 399.122 320.298 C 398.211 321.078 397.197 321.935 396.11 322.84 C 395.022 323.746 393.861 324.7 392.656 325.674 C 391.452 326.648 390.203 327.642 388.94 328.628 C 387.677 329.614 386.401 330.591 385.14 331.532 C 383.879 332.473 382.634 333.376 381.435 334.215 C 380.235 335.053 379.082 335.827 378.002 336.506 C 377.9 336.572 377.799 336.638 377.697 336.705 C 377.595 336.771 377.494 336.838 377.392 336.904 C 377.29 336.971 377.188 337.037 377.086 337.104 C 376.984 337.171 376.882 337.237 376.78 337.304 C 376.678 337.371 376.576 337.437 376.473 337.504 C 376.37 337.571 376.267 337.638 376.164 337.706 C 376.061 337.773 375.958 337.841 375.854 337.909 C 375.75 337.977 375.646 338.044 375.541 338.112 C 372.899 339.562 370.154 340.874 367.329 342.045 C 364.504 343.216 361.597 344.247 358.632 345.136 C 355.667 346.025 352.643 346.773 349.582 347.379 C 346.521 347.985 343.423 348.448 340.311 348.769 C 337.198 349.09 334.071 349.268 330.951 349.302 C 327.831 349.336 324.718 349.226 321.634 348.971 C 318.55 348.716 315.495 348.317 312.492 347.773 C 309.489 347.229 306.537 346.539 303.658 345.702 C 301.047 344.849 298.449 343.889 295.877 342.827 C 293.305 341.765 290.761 340.601 288.257 339.337 C 285.753 338.073 283.29 336.71 280.881 335.25 C 278.472 333.791 276.119 332.235 273.834 330.586 C 271.548 328.937 269.332 327.195 267.198 325.362 C 265.064 323.53 263.014 321.607 261.06 319.598 C 259.106 317.589 257.249 315.493 255.502 313.313 C 253.756 311.133 252.12 308.869 250.609 306.524 C 250.136 306.682 249.715 306.86 249.334 307.057 C 248.954 307.254 248.615 307.47 248.309 307.704 C 248.002 307.938 247.726 308.19 247.471 308.457 C 247.216 308.725 246.982 309.008 246.758 309.307 C 246.534 309.606 246.322 309.919 246.11 310.245 C 245.898 310.572 245.686 310.912 245.465 311.264 C 245.244 311.616 245.013 311.98 244.762 312.353 C 244.511 312.727 244.24 313.111 243.939 313.505 C 242.717 315.022 241.435 316.52 240.099 317.99 C 238.763 319.46 237.373 320.904 235.934 322.313 C 234.495 323.722 233.007 325.097 231.477 326.432 C 229.947 327.766 228.373 329.06 226.762 330.305 C 225.151 331.55 223.504 332.748 221.824 333.891 C 220.144 335.034 218.433 336.121 216.695 337.147 C 214.957 338.173 213.194 339.137 211.41 340.032 C 209.626 340.927 207.822 341.754 206.002 342.505 C 205.58 342.529 205.211 342.549 204.883 342.566 C 204.555 342.583 204.268 342.598 204.01 342.609 C 203.752 342.621 203.524 342.629 203.313 342.635 C 203.102 342.641 202.909 342.644 202.721 342.644 C 202.534 342.644 202.352 342.641 202.165 342.635 C 201.978 342.629 201.784 342.62 201.573 342.609 C 201.362 342.597 201.134 342.583 200.876 342.566 C 200.618 342.549 200.331 342.528 200.002 342.505 C 199.995 342.416 199.988 342.328 199.981 342.239 C 199.974 342.15 199.967 342.061 199.96 341.972 C 199.953 341.883 199.946 341.794 199.939 341.705 C 199.932 341.616 199.925 341.527 199.918 341.437 C 199.911 341.348 199.904 341.258 199.897 341.168 C 199.89 341.078 199.883 340.988 199.876 340.898 C 199.869 340.808 199.862 340.718 199.855 340.627 C 199.848 340.536 199.841 340.445 199.834 340.353 C 199.802 339.945 199.77 339.538 199.738 339.13 C 199.706 338.722 199.674 338.314 199.642 337.906 C 199.61 337.498 199.578 337.091 199.546 336.683 C 199.514 336.275 199.482 335.867 199.45 335.46 C 199.418 335.053 199.385 334.645 199.353 334.237 C 199.321 333.829 199.289 333.421 199.257 333.013 C 199.225 332.606 199.193 332.198 199.161 331.79 C 199.129 331.382 199.096 330.974 199.064 330.566 C 199.053 330.426 199.042 330.286 199.032 330.146 C 199.021 330.006 199.01 329.867 199 329.727 C 198.989 329.587 198.978 329.447 198.967 329.307 C 198.956 329.167 198.945 329.027 198.934 328.886 C 198.923 328.746 198.912 328.605 198.901 328.463 C 198.89 328.322 198.879 328.18 198.868 328.038 C 198.857 327.896 198.846 327.754 198.835 327.611 C 198.824 327.468 198.813 327.325 198.801 327.182 C 198.739 326.402 198.676 325.622 198.612 324.843 C 198.548 324.064 198.482 323.284 198.415 322.505 C 198.348 321.726 198.279 320.947 198.209 320.169 C 198.138 319.39 198.066 318.612 197.991 317.834 C 197.917 317.056 197.841 316.278 197.763 315.501 C 197.685 314.723 197.605 313.946 197.523 313.168 C 197.441 312.391 197.357 311.613 197.27 310.836 C 197.183 310.059 197.094 309.281 197.003 308.504 C 197.177 308.398 197.33 308.304 197.466 308.221 C 197.602 308.138 197.722 308.064 197.831 307.997 C 197.94 307.93 198.038 307.87 198.131 307.813 C 198.224 307.756 198.312 307.703 198.4 307.649 C 198.488 307.595 198.576 307.541 198.67 307.483 C 198.764 307.425 198.864 307.365 198.975 307.296 C 199.086 307.228 199.208 307.153 199.347 307.068 C 199.486 306.983 199.641 306.888 199.819 306.78 C 201.216 305.914 202.567 304.993 203.875 304.031 C 205.183 303.069 206.448 302.064 207.673 301.03 C 208.898 299.996 210.082 298.932 211.228 297.85 C 212.374 296.768 213.482 295.669 214.555 294.564 C 215.628 293.46 216.667 292.349 217.673 291.245 C 218.679 290.141 219.652 289.044 220.595 287.965 C 221.539 286.886 222.453 285.827 223.34 284.797 C 224.227 283.768 225.087 282.769 225.922 281.814 C 226.236 281.321 226.487 280.926 226.692 280.607 C 226.896 280.288 227.053 280.043 227.177 279.849 C 227.301 279.654 227.392 279.51 227.465 279.392 C 227.538 279.274 227.593 279.182 227.644 279.091 C 227.695 279 227.742 278.911 227.8 278.798 C 227.858 278.686 227.926 278.55 228.02 278.367 C 228.114 278.184 228.233 277.953 228.392 277.651 C 228.551 277.348 228.75 276.974 229.003 276.503 C 229.085 276.008 229.168 275.513 229.251 275.018 C 229.333 274.523 229.416 274.027 229.499 273.531 C 229.581 273.035 229.664 272.538 229.747 272.041 C 229.83 271.544 229.913 271.046 229.996 270.548 C 230.079 270.049 230.163 269.549 230.247 269.048 C 230.33 268.547 230.414 268.045 230.497 267.542 C 230.581 267.039 230.665 266.534 230.75 266.027 C 230.834 265.521 230.919 265.013 231.004 264.503 C 230.857 264.49 230.71 264.477 230.563 264.465 C 230.416 264.452 230.269 264.439 230.122 264.427 C 229.975 264.414 229.828 264.401 229.68 264.388 C 229.533 264.375 229.385 264.362 229.237 264.349 C 229.089 264.336 228.941 264.323 228.792 264.31 C 228.643 264.297 228.494 264.284 228.345 264.271 C 228.196 264.258 228.046 264.245 227.895 264.231 C 227.744 264.218 227.593 264.204 227.442 264.191 C 226.914 264.125 226.401 264.045 225.897 263.954 C 225.394 263.863 224.902 263.759 224.418 263.644 C 223.934 263.529 223.459 263.403 222.989 263.266 C 222.519 263.129 222.055 262.982 221.593 262.824 C 221.131 262.666 220.672 262.499 220.213 262.322 C 219.754 262.145 219.294 261.96 218.832 261.766 C 218.37 261.571 217.905 261.369 217.435 261.158 C 216.965 260.947 216.489 260.729 216.005 260.504 C 215.809 260.43 215.614 260.357 215.419 260.284 C 215.224 260.211 215.028 260.138 214.833 260.065 C 214.637 259.992 214.442 259.919 214.247 259.846 C 214.052 259.773 213.856 259.7 213.661 259.627 C 213.466 259.554 213.27 259.481 213.075 259.408 C 212.88 259.335 212.684 259.262 212.489 259.19 C 212.293 259.117 212.098 259.044 211.903 258.972 C 211.708 258.899 211.512 258.827 211.317 258.754 C 208.189 257.492 205.187 256.073 202.307 254.507 C 199.427 252.941 196.67 251.23 194.031 249.384 C 191.393 247.539 188.872 245.559 186.468 243.457 C 184.063 241.355 181.774 239.131 179.596 236.797 C 177.418 234.463 175.353 232.019 173.395 229.477 C 171.437 226.935 169.587 224.295 167.842 221.568 C 166.097 218.842 164.456 216.029 162.917 213.143 C 161.377 210.256 159.939 207.296 158.598 204.273 C 158.524 204.052 158.459 203.858 158.402 203.683 C 158.345 203.508 158.297 203.351 158.255 203.203 C 158.213 203.055 158.178 202.916 158.149 202.777 C 158.12 202.638 158.097 202.499 158.079 202.35 C 158.06 202.201 158.047 202.042 158.036 201.865 C 158.026 201.687 158.019 201.491 158.014 201.266 C 158.009 201.041 158.007 200.788 158.006 200.497 C 158.005 200.207 158.005 199.879 158.005 199.504 C 159.304 199.071 160.644 198.729 162.012 198.47 C 163.38 198.211 164.777 198.035 166.19 197.936 C 167.603 197.837 169.034 197.815 170.47 197.862 C 171.906 197.909 173.347 198.026 174.783 198.206 C 176.218 198.385 177.648 198.627 179.061 198.925 C 180.473 199.223 181.868 199.576 183.234 199.977 C 184.6 200.378 185.937 200.828 187.234 201.319 C 188.531 201.81 189.788 202.343 190.993 202.91 C 191.816 203.354 192.611 203.807 193.383 204.273 C 194.155 204.738 194.902 205.215 195.63 205.704 C 196.358 206.193 197.067 206.695 197.76 207.21 C 198.453 207.725 199.131 208.254 199.798 208.797 C 200.464 209.34 201.119 209.898 201.767 210.471 C 202.414 211.044 203.054 211.633 203.691 212.238 C 204.328 212.843 204.961 213.465 205.596 214.104 C 206.23 214.743 206.865 215.4 207.505 216.074 C 208.3 216.847 209.121 217.586 209.963 218.294 C 210.806 219.001 211.67 219.677 212.555 220.324 C 213.439 220.972 214.343 221.59 215.263 222.183 C 216.183 222.776 217.121 223.343 218.072 223.888 C 219.024 224.432 219.99 224.954 220.968 225.455 C 221.945 225.956 222.934 226.438 223.932 226.902 C 224.93 227.366 225.937 227.813 226.95 228.246 C 227.963 228.679 228.982 229.097 230.005 229.503 C 229.261 227.29 228.425 225.157 227.5 223.103 C 226.575 221.049 225.561 219.072 224.461 217.171 C 223.361 215.27 222.175 213.444 220.906 211.69 C 219.637 209.937 218.286 208.256 216.854 206.645 C 215.421 205.034 213.909 203.494 212.319 202.02 C 210.729 200.546 209.063 199.14 207.322 197.799 C 205.581 196.458 203.766 195.181 201.878 193.965 C 199.991 192.75 198.032 191.597 196.005 190.503 C 195.471 190.287 194.938 190.078 194.404 189.876 C 193.871 189.674 193.338 189.478 192.803 189.289 C 192.269 189.1 191.734 188.917 191.199 188.74 C 190.663 188.563 190.127 188.393 189.588 188.228 C 189.049 188.063 188.509 187.904 187.967 187.75 C 187.424 187.596 186.879 187.448 186.331 187.304 C 185.783 187.16 185.232 187.022 184.678 186.889 C 184.124 186.756 183.566 186.627 183.004 186.503 C 182.909 186.479 182.813 186.455 182.718 186.432 C 182.623 186.408 182.528 186.385 182.433 186.361 C 182.338 186.337 182.243 186.313 182.147 186.289 C 182.051 186.265 181.956 186.241 181.86 186.218 C 181.764 186.194 181.668 186.171 181.572 186.147 C 181.476 186.123 181.38 186.099 181.283 186.075 C 181.186 186.051 181.089 186.027 180.992 186.002 C 180.895 185.978 180.797 185.953 180.699 185.929 C 178.495 185.58 176.292 185.326 174.095 185.167 C 171.898 185.008 169.708 184.946 167.53 184.982 C 165.352 185.018 163.186 185.151 161.038 185.386 C 158.89 185.62 156.76 185.956 154.653 186.393 C 152.546 186.831 150.463 187.371 148.41 188.017 C 146.356 188.663 144.332 189.414 142.342 190.272 C 140.352 191.131 138.397 192.096 136.483 193.172 C 134.569 194.247 132.695 195.432 130.868 196.729 C 129.62 197.715 128.421 198.716 127.27 199.735 C 126.119 200.754 125.016 201.792 123.96 202.854 C 122.905 203.915 121.897 205 120.937 206.113 C 119.977 207.226 119.064 208.366 118.197 209.54 C 117.33 210.714 116.511 211.921 115.737 213.165 C 114.963 214.409 114.236 215.691 113.554 217.015 C 112.872 218.339 112.235 219.705 111.644 221.118 C 111.053 222.531 110.506 223.991 110.005 225.503 C 109.967 225.611 109.93 225.719 109.893 225.828 C 109.856 225.936 109.818 226.045 109.781 226.153 C 109.744 226.262 109.706 226.37 109.669 226.479 C 109.632 226.588 109.594 226.696 109.557 226.805 C 109.52 226.914 109.482 227.023 109.444 227.133 C 109.406 227.242 109.369 227.352 109.331 227.462 C 109.293 227.572 109.255 227.683 109.217 227.794 C 109.179 227.905 109.141 228.016 109.102 228.128 C 109.013 228.393 108.923 228.658 108.834 228.923 C 108.745 229.188 108.656 229.453 108.567 229.718 C 108.479 229.983 108.39 230.248 108.302 230.514 C 108.214 230.78 108.126 231.045 108.039 231.311 C 107.951 231.577 107.864 231.842 107.777 232.108 C 107.69 232.374 107.604 232.639 107.518 232.905 C 107.432 233.171 107.346 233.437 107.261 233.704 C 107.176 233.97 107.09 234.237 107.005 234.503 C 106.923 234.503 106.831 234.959 106.747 235.785 C 106.663 236.612 106.585 237.809 106.53 239.292 C 106.474 240.775 106.441 242.544 106.446 244.514 C 106.45 246.484 106.492 248.655 106.587 250.941 C 106.681 253.228 106.829 255.63 107.045 258.064 C 107.261 260.498 107.546 262.963 107.914 265.375 C 108.282 267.786 108.733 270.144 109.284 272.363 C 109.834 274.582 110.484 276.662 111.248 278.518 C 111.342 278.765 111.497 279.088 111.699 279.468 C 111.9 279.848 112.148 280.283 112.426 280.755 C 112.704 281.227 113.013 281.735 113.337 282.259 C 113.661 282.783 114.001 283.323 114.341 283.859 C 114.681 284.395 115.021 284.927 115.345 285.435 C 115.67 285.943 115.979 286.427 116.258 286.867 C 116.537 287.307 116.786 287.702 116.988 288.034 C 117.191 288.365 117.347 288.632 117.443 288.815 C 117.759 289.368 118.083 289.904 118.414 290.428 C 118.745 290.951 119.084 291.461 119.43 291.959 C 119.776 292.457 120.13 292.943 120.492 293.42 C 120.855 293.897 121.226 294.365 121.606 294.825 C 121.986 295.285 122.375 295.738 122.774 296.186 C 123.172 296.633 123.58 297.075 123.999 297.514 C 124.417 297.953 124.845 298.389 125.284 298.824 C 125.723 299.259 126.172 299.693 126.632 300.128 C 127.168 300.641 127.686 301.147 128.187 301.65 C 128.687 302.153 129.169 302.653 129.633 303.155 C 130.097 303.657 130.543 304.161 130.971 304.673 C 131.399 305.184 131.808 305.703 132.199 306.233 C 132.59 306.764 132.963 307.306 133.318 307.866 C 133.673 308.426 134.009 309.003 134.326 309.602 C 134.643 310.201 134.943 310.822 135.223 311.471 C 135.503 312.12 135.765 312.795 136.007 313.503 C 136.044 313.597 136.08 313.691 136.117 313.784 C 136.154 313.878 136.19 313.971 136.227 314.065 C 136.263 314.159 136.3 314.252 136.337 314.346 C 136.374 314.44 136.411 314.534 136.448 314.629 C 136.485 314.723 136.522 314.818 136.559 314.913 C 136.596 315.008 136.633 315.102 136.671 315.197 C 136.708 315.292 136.746 315.388 136.784 315.483 C 136.822 315.579 136.859 315.675 136.897 315.772 C 137.277 316.897 137.599 318.028 137.872 319.164 C 138.144 320.3 138.367 321.44 138.547 322.585 C 138.727 323.73 138.866 324.879 138.971 326.032 C 139.076 327.184 139.146 328.34 139.191 329.499 C 139.236 330.658 139.255 331.82 139.257 332.984 C 139.258 334.148 139.242 335.314 139.216 336.482 C 139.19 337.65 139.154 338.819 139.117 339.99 C 139.08 341.16 139.04 342.332 139.007 343.503 C 138.636 343.421 138.044 343.212 137.289 342.909 C 136.534 342.606 135.617 342.21 134.597 341.751 C 133.577 341.293 132.453 340.772 131.285 340.221 C 130.117 339.67 128.904 339.09 127.706 338.511 C 126.508 337.932 125.324 337.356 124.214 336.814 C 123.104 336.272 122.067 335.763 121.163 335.321 C 120.259 334.879 119.486 334.503 118.906 334.225 C 118.325 333.947 117.936 333.767 117.796 333.718 C 116.312 333.071 114.848 332.313 113.409 331.461 C 111.97 330.608 110.556 329.661 109.172 328.637 C 107.787 327.613 106.432 326.512 105.112 325.351 C 103.791 324.19 102.505 322.969 101.257 321.705 C 100.009 320.442 98.8 319.135 97.634 317.803 C 96.469 316.471 95.347 315.114 94.273 313.749 C 93.199 312.384 92.173 311.01 91.2 309.646 C 90.227 308.282 89.307 306.926 88.444 305.597 C 88.277 305.335 88.131 305.106 88 304.902 C 87.869 304.698 87.753 304.52 87.646 304.361 C 87.539 304.202 87.441 304.061 87.347 303.932 C 87.253 303.803 87.161 303.686 87.067 303.574 C 86.974 303.462 86.877 303.355 86.772 303.245 C 86.667 303.135 86.554 303.023 86.426 302.902 C 86.299 302.781 86.157 302.65 85.994 302.504 C 85.832 302.357 85.649 302.194 85.441 302.007 C 85.217 301.772 85.011 301.539 84.819 301.306 C 84.627 301.073 84.45 300.841 84.285 300.607 C 84.12 300.374 83.968 300.139 83.826 299.901 C 83.683 299.663 83.55 299.423 83.424 299.179 C 83.298 298.934 83.179 298.686 83.063 298.431 C 82.948 298.176 82.837 297.916 82.728 297.648 C 82.618 297.38 82.511 297.105 82.402 296.821 C 82.293 296.537 82.184 296.244 82.07 295.94 C 81.859 295.384 81.637 294.831 81.406 294.279 C 81.175 293.727 80.934 293.178 80.687 292.63 C 80.44 292.082 80.187 291.536 79.93 290.99 C 79.673 290.444 79.412 289.9 79.149 289.356 C 78.886 288.812 78.623 288.268 78.36 287.724 C 78.097 287.18 77.836 286.637 77.579 286.093 C 77.321 285.549 77.068 285.005 76.821 284.46 C 76.574 283.915 76.334 283.369 76.102 282.821 C 75.976 282.417 75.857 282.052 75.743 281.718 C 75.629 281.385 75.522 281.083 75.419 280.804 C 75.316 280.525 75.219 280.269 75.127 280.028 C 75.035 279.787 74.947 279.561 74.863 279.342 C 74.779 279.123 74.699 278.91 74.623 278.696 C 74.547 278.482 74.474 278.266 74.403 278.04 C 74.332 277.814 74.265 277.579 74.2 277.326 C 74.135 277.072 74.071 276.801 74.009 276.503 C 73.778 275.558 73.568 274.62 73.378 273.685 C 73.188 272.75 73.018 271.82 72.866 270.891 C 72.715 269.962 72.581 269.036 72.465 268.11 C 72.348 267.184 72.248 266.258 72.163 265.33 C 72.078 264.403 72.008 263.474 71.952 262.541 C 71.896 261.608 71.853 260.673 71.821 259.731 C 71.79 258.789 71.77 257.843 71.76 256.889 C 71.75 255.935 71.75 254.974 71.759 254.003 C 71.76 253.861 71.761 253.718 71.762 253.575 C 71.763 253.433 71.764 253.29 71.765 253.148 C 71.766 253.005 71.767 252.863 71.768 252.72 C 71.769 252.577 71.77 252.434 71.77 252.29 C 71.771 252.147 71.772 252.003 71.773 251.859 C 71.774 251.715 71.775 251.57 71.775 251.425 C 71.776 251.28 71.777 251.135 71.778 250.989 C 71.779 250.843 71.78 250.697 71.78 250.551 C 71.803 248.732 71.836 246.936 71.887 245.159 C 71.939 243.382 72.009 241.624 72.109 239.882 C 72.208 238.14 72.336 236.414 72.501 234.7 C 72.667 232.986 72.87 231.285 73.121 229.592 C 73.372 227.899 73.67 226.216 74.025 224.538 C 74.38 222.86 74.792 221.188 75.27 219.519 C 75.748 217.85 76.292 216.182 76.912 214.514 C 77.532 212.846 78.227 211.176 79.007 209.503 C 79.061 209.379 79.115 209.255 79.169 209.131 C 79.223 209.007 79.277 208.883 79.331 208.758 C 79.385 208.633 79.439 208.509 79.493 208.384 C 79.547 208.259 79.601 208.135 79.656 208.01 C 79.711 207.885 79.765 207.76 79.82 207.634 C 79.875 207.508 79.929 207.383 79.984 207.257 C 80.039 207.131 80.094 207.005 80.149 206.877 C 80.204 206.75 80.259 206.622 80.315 206.495 C 81.607 203.692 83.057 200.947 84.649 198.272 C 86.241 195.597 87.977 192.993 89.84 190.471 C 91.704 187.949 93.695 185.509 95.8 183.163 C 97.905 180.817 100.122 178.565 102.438 176.418 C 104.754 174.272 107.169 172.232 109.667 170.309 C 112.165 168.386 114.747 166.581 117.398 164.906 C 120.049 163.231 122.768 161.685 125.541 160.28 C 128.314 158.875 131.141 157.612 134.007 156.502 C 134.364 156.383 134.721 156.266 135.078 156.15 C 135.435 156.034 135.793 155.92 136.152 155.807 C 136.51 155.694 136.869 155.582 137.227 155.472 C 137.586 155.361 137.945 155.252 138.305 155.143 C 138.664 155.034 139.024 154.927 139.384 154.82 C 139.744 154.713 140.105 154.607 140.466 154.502 C 140.827 154.397 141.187 154.292 141.549 154.188 C 141.91 154.084 142.271 153.98 142.632 153.877 C 142.724 153.85 142.816 153.823 142.908 153.796 C 143 153.769 143.093 153.742 143.184 153.714 C 143.276 153.687 143.368 153.66 143.461 153.632 C 143.554 153.605 143.646 153.577 143.739 153.55 C 143.832 153.523 143.925 153.495 144.018 153.468 C 144.111 153.441 144.205 153.414 144.299 153.386 C 144.393 153.358 144.487 153.331 144.581 153.303 C 144.675 153.275 144.77 153.248 144.865 153.22 C 146.816 152.654 148.804 152.156 150.819 151.728 C 152.835 151.3 154.879 150.942 156.942 150.655 C 159.005 150.368 161.085 150.153 163.175 150.01 C 165.265 149.867 167.364 149.797 169.462 149.801 C 171.56 149.805 173.658 149.883 175.746 150.037 C 177.834 150.191 179.912 150.42 181.97 150.727 C 184.028 151.033 186.066 151.417 188.076 151.879 C 190.085 152.341 192.066 152.881 194.007 153.501 L 194.007 153.501 L 194.006 153.501 L 194.006 153.501 Z" style="fill:#4a3f35; stroke:#4a3f35; stroke-width: 1; paint-order: fill;"/><path d="M 119.008 237.503 C 119.724 237.724 120.434 237.95 121.139 238.18 C 121.844 238.41 122.544 238.645 123.24 238.885 C 123.935 239.126 124.626 239.373 125.314 239.627 C 126.001 239.881 126.684 240.142 127.363 240.412 C 128.043 240.682 128.719 240.96 129.392 241.248 C 130.065 241.536 130.735 241.833 131.402 242.141 C 132.07 242.449 132.735 242.768 133.398 243.099 C 134.061 243.43 134.723 243.772 135.383 244.128 C 135.463 244.171 135.543 244.215 135.624 244.258 C 135.704 244.301 135.785 244.345 135.865 244.388 C 135.946 244.431 136.026 244.475 136.107 244.518 C 136.188 244.561 136.268 244.605 136.349 244.648 C 136.43 244.692 136.511 244.735 136.593 244.779 C 136.674 244.823 136.756 244.867 136.837 244.911 C 136.919 244.955 137 244.999 137.083 245.044 C 137.165 245.088 137.248 245.133 137.331 245.177 C 138.101 245.606 138.859 246.045 139.604 246.496 C 140.349 246.947 141.083 247.408 141.805 247.881 C 142.528 248.353 143.24 248.837 143.944 249.33 C 144.647 249.823 145.342 250.328 146.029 250.842 C 146.716 251.356 147.396 251.882 148.069 252.417 C 148.742 252.952 149.41 253.498 150.073 254.053 C 150.736 254.609 151.394 255.174 152.05 255.749 C 152.705 256.324 153.358 256.909 154.008 257.504 C 154.113 257.597 154.218 257.69 154.323 257.784 C 154.428 257.877 154.533 257.971 154.638 258.064 C 154.743 258.158 154.848 258.251 154.954 258.345 C 155.06 258.439 155.165 258.533 155.271 258.628 C 155.377 258.722 155.483 258.817 155.589 258.911 C 155.695 259.005 155.802 259.1 155.909 259.195 C 156.016 259.29 156.123 259.385 156.23 259.481 C 156.337 259.577 156.445 259.672 156.553 259.768 C 158.252 261.362 159.865 263.009 161.396 264.705 C 162.927 266.401 164.376 268.147 165.748 269.94 C 167.12 271.732 168.414 273.571 169.635 275.454 C 170.856 277.336 172.004 279.261 173.083 281.226 C 174.162 283.191 175.172 285.196 176.118 287.237 C 177.064 289.278 177.945 291.356 178.766 293.467 C 179.587 295.578 180.348 297.722 181.053 299.896 C 181.758 302.07 182.408 304.273 183.007 306.503 C 183.029 306.583 183.05 306.663 183.072 306.743 C 183.094 306.823 183.115 306.903 183.137 306.983 C 183.159 307.063 183.18 307.143 183.202 307.224 C 183.224 307.304 183.246 307.385 183.268 307.466 C 183.29 307.546 183.311 307.627 183.333 307.708 C 183.355 307.789 183.377 307.87 183.4 307.952 C 183.422 308.034 183.444 308.115 183.466 308.197 C 183.488 308.279 183.51 308.361 183.532 308.443 C 183.74 309.277 183.927 310.112 184.095 310.946 C 184.263 311.78 184.413 312.615 184.547 313.45 C 184.682 314.285 184.8 315.121 184.906 315.957 C 185.012 316.794 185.105 317.631 185.188 318.47 C 185.271 319.309 185.344 320.149 185.41 320.991 C 185.476 321.833 185.534 322.676 185.588 323.522 C 185.642 324.368 185.691 325.216 185.739 326.067 C 185.787 326.918 185.833 327.771 185.881 328.628 C 186.057 331.297 186.297 333.91 186.613 336.467 C 186.929 339.025 187.323 341.528 187.807 343.977 C 188.291 346.426 188.865 348.821 189.543 351.163 C 190.221 353.505 191.003 355.794 191.903 358.031 C 192.802 360.268 193.819 362.453 194.966 364.588 C 196.113 366.723 197.391 368.806 198.813 370.84 C 200.235 372.874 201.801 374.857 203.525 376.792 C 205.249 378.727 207.13 380.613 209.181 382.452 C 209.418 382.635 209.654 382.814 209.891 382.992 C 210.128 383.17 210.366 383.346 210.605 383.521 C 210.843 383.696 211.083 383.868 211.323 384.039 C 211.563 384.21 211.804 384.379 212.046 384.546 C 212.288 384.713 212.531 384.88 212.775 385.045 C 213.019 385.21 213.264 385.374 213.511 385.537 C 213.757 385.7 214.005 385.862 214.254 386.023 C 214.503 386.184 214.754 386.344 215.006 386.503 C 215.132 386.588 215.258 386.673 215.385 386.758 C 215.511 386.843 215.638 386.928 215.764 387.013 C 215.891 387.098 216.017 387.183 216.144 387.269 C 216.271 387.355 216.398 387.44 216.525 387.526 C 216.652 387.612 216.78 387.698 216.908 387.784 C 217.036 387.87 217.164 387.957 217.292 388.043 C 217.421 388.13 217.549 388.216 217.679 388.303 C 217.808 388.39 217.938 388.477 218.068 388.565 C 219.994 389.623 221.956 390.576 223.947 391.422 C 225.938 392.268 227.959 393.009 230.002 393.645 C 232.045 394.281 234.112 394.812 236.195 395.238 C 238.278 395.664 240.378 395.986 242.489 396.205 C 244.6 396.423 246.72 396.537 248.846 396.549 C 250.971 396.56 253.1 396.469 255.227 396.275 C 257.354 396.081 259.479 395.785 261.595 395.386 C 263.711 394.988 265.819 394.487 267.912 393.886 C 269.959 393.233 271.941 392.502 273.858 391.693 C 275.776 390.884 277.629 389.997 279.419 389.033 C 281.209 388.069 282.936 387.028 284.6 385.91 C 286.264 384.792 287.867 383.598 289.408 382.328 C 290.949 381.059 292.428 379.713 293.847 378.292 C 295.266 376.871 296.624 375.376 297.922 373.806 C 299.22 372.236 300.46 370.592 301.64 368.875 C 302.82 367.157 303.942 365.366 305.006 363.502 C 305.13 363.316 305.238 363.153 305.335 363.009 C 305.432 362.864 305.517 362.736 305.594 362.62 C 305.671 362.504 305.741 362.399 305.808 362.3 C 305.874 362.201 305.937 362.107 305.999 362.014 C 306.062 361.92 306.124 361.827 306.191 361.726 C 306.258 361.626 306.328 361.52 306.407 361.402 C 306.485 361.284 306.572 361.154 306.671 361.006 C 306.77 360.858 306.88 360.692 307.006 360.503 C 307.232 360.532 307.43 360.557 307.606 360.58 C 307.783 360.602 307.938 360.622 308.08 360.64 C 308.221 360.658 308.349 360.674 308.47 360.69 C 308.591 360.705 308.704 360.72 308.818 360.734 C 308.932 360.748 309.046 360.763 309.169 360.779 C 309.291 360.794 309.42 360.811 309.564 360.829 C 309.708 360.847 309.866 360.868 310.046 360.891 C 310.226 360.914 310.427 360.939 310.658 360.968 C 311.444 361.055 312.23 361.135 313.017 361.207 C 313.804 361.279 314.59 361.345 315.377 361.404 C 316.164 361.464 316.951 361.517 317.739 361.566 C 318.526 361.615 319.314 361.658 320.101 361.698 C 320.889 361.738 321.677 361.774 322.465 361.808 C 323.253 361.842 324.042 361.872 324.831 361.901 C 325.62 361.93 326.409 361.957 327.199 361.985 C 327.988 362.012 328.778 362.038 329.568 362.065 C 329.793 362.073 329.99 362.08 330.165 362.086 C 330.341 362.092 330.495 362.098 330.636 362.103 C 330.777 362.108 330.904 362.112 331.024 362.117 C 331.144 362.121 331.257 362.125 331.371 362.129 C 331.484 362.133 331.598 362.137 331.719 362.141 C 331.84 362.145 331.969 362.15 332.112 362.156 C 332.255 362.161 332.412 362.167 332.592 362.173 C 332.771 362.18 332.972 362.187 333.201 362.195 C 333.567 362.208 333.934 362.221 334.301 362.234 C 334.668 362.247 335.035 362.26 335.402 362.273 C 335.768 362.286 336.135 362.299 336.502 362.311 C 336.869 362.324 337.235 362.336 337.602 362.349 C 337.969 362.361 338.335 362.374 338.702 362.387 C 339.069 362.4 339.436 362.412 339.803 362.425 C 340.17 362.437 340.537 362.45 340.903 362.463 C 341.27 362.476 341.637 362.489 342.004 362.501 C 341.791 363.291 341.573 364.071 341.349 364.844 C 341.125 365.617 340.895 366.382 340.657 367.14 C 340.419 367.898 340.173 368.649 339.916 369.394 C 339.66 370.139 339.393 370.878 339.115 371.613 C 338.836 372.348 338.546 373.077 338.241 373.803 C 337.936 374.529 337.618 375.25 337.283 375.969 C 336.949 376.688 336.598 377.403 336.229 378.117 C 335.86 378.831 335.473 379.542 335.066 380.252 C 335.018 380.337 334.97 380.422 334.922 380.506 C 334.874 380.591 334.826 380.675 334.777 380.76 C 334.729 380.844 334.681 380.929 334.632 381.014 C 334.584 381.099 334.535 381.184 334.487 381.27 C 334.439 381.356 334.39 381.441 334.341 381.526 C 334.292 381.611 334.243 381.697 334.194 381.783 C 334.145 381.869 334.096 381.955 334.046 382.042 C 333.997 382.129 333.947 382.215 333.898 382.302 C 332.511 384.648 331.036 386.921 329.477 389.119 C 327.918 391.318 326.276 393.442 324.555 395.489 C 322.834 397.536 321.033 399.506 319.158 401.397 C 317.283 403.288 315.333 405.099 313.314 406.829 C 311.295 408.558 309.205 410.206 307.05 411.77 C 304.895 413.333 302.674 414.813 300.392 416.205 C 298.11 417.597 295.767 418.903 293.368 420.12 C 290.969 421.337 288.512 422.465 286.004 423.501 C 285.906 423.548 285.808 423.595 285.71 423.642 C 285.612 423.689 285.514 423.735 285.415 423.782 C 285.316 423.829 285.218 423.876 285.12 423.922 C 285.021 423.969 284.923 424.016 284.824 424.063 C 284.725 424.11 284.627 424.157 284.527 424.204 C 284.428 424.251 284.328 424.299 284.228 424.347 C 284.128 424.394 284.028 424.442 283.928 424.49 C 283.828 424.538 283.727 424.586 283.626 424.634 C 282.741 425.035 281.74 425.418 280.666 425.78 C 279.591 426.143 278.443 426.486 277.263 426.81 C 276.084 427.134 274.874 427.438 273.676 427.722 C 272.478 428.007 271.292 428.272 270.162 428.517 C 269.032 428.762 267.957 428.987 266.98 429.193 C 266.003 429.398 265.125 429.584 264.388 429.749 C 263.651 429.915 263.055 430.06 262.643 430.185 C 262.231 430.31 262.004 430.416 262.004 430.501 C 261.522 430.508 261.04 430.515 260.559 430.521 C 260.077 430.528 259.595 430.534 259.114 430.541 C 258.632 430.547 258.15 430.553 257.668 430.558 C 257.186 430.564 256.704 430.569 256.223 430.575 C 255.742 430.58 255.26 430.585 254.778 430.589 C 254.296 430.594 253.814 430.598 253.333 430.603 C 252.851 430.608 252.369 430.612 251.888 430.616 C 251.406 430.62 250.924 430.624 250.442 430.627 C 250.239 430.63 250.06 430.633 249.901 430.635 C 249.742 430.637 249.602 430.64 249.474 430.642 C 249.347 430.644 249.232 430.646 249.123 430.647 C 249.014 430.649 248.912 430.65 248.809 430.652 C 248.706 430.653 248.603 430.655 248.493 430.657 C 248.383 430.659 248.267 430.66 248.138 430.662 C 248.008 430.664 247.866 430.666 247.703 430.669 C 247.541 430.672 247.359 430.675 247.151 430.678 C 246.42 430.683 245.707 430.681 245.006 430.672 C 244.305 430.663 243.618 430.646 242.939 430.619 C 242.261 430.591 241.593 430.554 240.93 430.503 C 240.268 430.453 239.611 430.39 238.957 430.312 C 238.303 430.234 237.652 430.141 236.999 430.031 C 236.347 429.92 235.693 429.793 235.035 429.644 C 234.377 429.497 233.714 429.329 233.044 429.139 C 232.373 428.949 231.695 428.738 231.005 428.502 C 230.79 428.465 230.574 428.428 230.358 428.392 C 230.142 428.356 229.926 428.32 229.71 428.284 C 229.494 428.248 229.278 428.213 229.062 428.179 C 228.846 428.144 228.63 428.11 228.414 428.076 C 228.198 428.042 227.981 428.009 227.765 427.975 C 227.549 427.942 227.332 427.909 227.116 427.877 C 226.9 427.845 226.683 427.813 226.467 427.782 C 226.251 427.751 226.034 427.72 225.818 427.689 C 222.844 427.156 219.937 426.431 217.101 425.534 C 214.265 424.637 211.498 423.567 208.805 422.344 C 206.112 421.12 203.491 419.744 200.946 418.233 C 198.401 416.722 195.932 415.076 193.542 413.314 C 191.152 411.553 188.84 409.676 186.61 407.703 C 184.38 405.73 182.231 403.66 180.166 401.512 C 178.101 399.365 176.121 397.139 174.228 394.856 C 172.335 392.572 170.529 390.23 168.814 387.848 C 167.5 385.96 166.273 384.039 165.129 382.087 C 163.985 380.136 162.925 378.154 161.948 376.144 C 160.97 374.134 160.074 372.096 159.258 370.031 C 158.442 367.966 157.705 365.875 157.045 363.759 C 156.385 361.643 155.804 359.502 155.297 357.339 C 154.791 355.176 154.36 352.99 154.002 350.784 C 153.644 348.577 153.359 346.35 153.146 344.104 C 152.932 341.858 152.79 339.593 152.716 337.312 C 152.627 334.721 152.474 332.196 152.245 329.732 C 152.016 327.268 151.712 324.866 151.321 322.519 C 150.93 320.173 150.452 317.882 149.877 315.643 C 149.302 313.403 148.629 311.214 147.848 309.07 C 147.067 306.926 146.177 304.827 145.167 302.768 C 144.157 300.709 143.028 298.689 141.768 296.703 C 140.508 294.717 139.117 292.767 137.585 290.844 C 136.053 288.922 134.379 287.029 132.552 285.159 C 132.119 284.707 131.698 284.255 131.288 283.801 C 130.878 283.347 130.479 282.891 130.091 282.431 C 129.702 281.972 129.324 281.509 128.955 281.041 C 128.586 280.574 128.226 280.101 127.875 279.623 C 127.523 279.145 127.181 278.66 126.845 278.169 C 126.51 277.677 126.182 277.178 125.861 276.669 C 125.54 276.161 125.225 275.644 124.916 275.117 C 124.607 274.59 124.303 274.052 124.005 273.503 C 123.914 273.34 123.834 273.197 123.763 273.07 C 123.692 272.943 123.63 272.83 123.572 272.728 C 123.515 272.626 123.464 272.534 123.415 272.447 C 123.367 272.36 123.321 272.278 123.275 272.195 C 123.229 272.112 123.183 272.03 123.134 271.942 C 123.085 271.854 123.033 271.76 122.975 271.656 C 122.917 271.552 122.853 271.438 122.781 271.308 C 122.709 271.178 122.628 271.033 122.535 270.866 C 121.909 269.536 121.377 268.197 120.926 266.849 C 120.475 265.501 120.105 264.145 119.803 262.781 C 119.501 261.417 119.268 260.045 119.091 258.666 C 118.913 257.287 118.791 255.901 118.712 254.508 C 118.633 253.115 118.597 251.715 118.591 250.309 C 118.585 248.903 118.609 247.491 118.65 246.073 C 118.691 244.655 118.75 243.231 118.814 241.803 C 118.877 240.374 118.945 238.941 119.005 237.503 L 119.006 237.503 Z" style="fill:#4a3f35; stroke:#4a3f35; stroke-width: 1; paint-order: fill;"/><path d="M 243.63 69.461 C 246.08 69.427 248.223 69.397 250.115 69.374 C 252.008 69.351 253.65 69.334 255.097 69.326 C 256.543 69.318 257.795 69.317 258.906 69.327 C 260.017 69.337 260.988 69.357 261.875 69.389 C 262.762 69.421 263.564 69.467 264.337 69.526 C 265.11 69.585 265.854 69.659 266.625 69.749 C 267.395 69.839 268.192 69.946 269.071 70.071 C 269.95 70.196 270.91 70.34 272.008 70.504 C 273.116 70.64 274.484 70.976 276.053 71.479 C 277.621 71.982 279.39 72.654 281.301 73.464 C 283.211 74.274 285.262 75.222 287.394 76.279 C 289.526 77.336 291.739 78.501 293.974 79.744 C 296.208 80.988 298.465 82.309 300.683 83.679 C 302.901 85.049 305.082 86.468 307.164 87.905 C 309.246 89.341 311.231 90.797 313.059 92.24 C 314.886 93.683 316.556 95.115 318.009 96.504 C 318.095 96.58 318.181 96.657 318.267 96.734 C 318.353 96.811 318.439 96.887 318.525 96.964 C 318.611 97.041 318.697 97.118 318.784 97.195 C 318.871 97.272 318.957 97.349 319.044 97.426 C 319.131 97.503 319.217 97.58 319.304 97.658 C 319.391 97.736 319.478 97.814 319.566 97.892 C 319.654 97.97 319.741 98.048 319.829 98.127 C 319.917 98.206 320.006 98.284 320.095 98.363 C 321.822 99.96 323.507 101.702 325.137 103.565 C 326.767 105.428 328.342 107.411 329.846 109.49 C 331.351 111.569 332.784 113.745 334.133 115.992 C 335.482 118.239 336.746 120.558 337.91 122.923 C 339.074 125.288 340.138 127.701 341.088 130.136 C 342.038 132.571 342.873 135.028 343.579 137.483 C 344.285 139.938 344.862 142.39 345.295 144.816 C 345.728 147.242 346.016 149.64 346.146 151.988 C 346.165 152.482 346.184 152.975 346.202 153.468 C 346.22 153.961 346.238 154.455 346.255 154.948 C 346.272 155.441 346.289 155.935 346.306 156.428 C 346.323 156.921 346.338 157.415 346.354 157.908 C 346.37 158.402 346.385 158.895 346.4 159.388 C 346.415 159.881 346.43 160.375 346.444 160.868 C 346.458 161.362 346.473 161.855 346.486 162.349 C 346.5 162.842 346.513 163.336 346.526 163.829 C 346.612 166.277 346.799 168.694 347.087 171.078 C 347.375 173.462 347.764 175.813 348.253 178.129 C 348.741 180.445 349.329 182.726 350.015 184.97 C 350.7 187.214 351.483 189.421 352.362 191.589 C 353.241 193.756 354.216 195.885 355.286 197.972 C 356.356 200.06 357.52 202.106 358.777 204.11 C 360.034 206.113 361.384 208.073 362.826 209.987 C 364.268 211.902 365.801 213.771 367.423 215.593 C 368.236 216.508 368.992 217.398 369.693 218.256 C 370.394 219.114 371.039 219.939 371.632 220.726 C 372.224 221.513 372.764 222.261 373.253 222.963 C 373.742 223.665 374.181 224.322 374.571 224.927 C 374.961 225.532 375.303 226.084 375.599 226.577 C 375.895 227.07 376.145 227.505 376.35 227.873 C 376.556 228.242 376.718 228.545 376.839 228.776 C 376.96 229.007 377.039 229.165 377.079 229.245 C 377.451 230.148 377.779 231.034 378.069 231.91 C 378.359 232.786 378.61 233.651 378.828 234.511 C 379.045 235.371 379.229 236.225 379.385 237.078 C 379.54 237.931 379.666 238.784 379.768 239.641 C 379.87 240.498 379.948 241.359 380.006 242.229 C 380.064 243.099 380.103 243.978 380.128 244.871 C 380.152 245.765 380.162 246.672 380.161 247.599 C 380.161 248.525 380.15 249.471 380.134 250.44 C 380.133 250.573 380.131 250.805 380.128 251.114 C 380.125 251.423 380.121 251.809 380.117 252.251 C 380.112 252.693 380.107 253.19 380.102 253.72 C 380.097 254.251 380.091 254.815 380.084 255.392 C 380.078 255.968 380.072 256.557 380.065 257.136 C 380.058 257.715 380.052 258.284 380.045 258.822 C 380.039 259.36 380.032 259.867 380.026 260.321 C 380.02 260.775 380.014 261.176 380.009 261.502 C 379.612 261.41 379.131 261.274 378.591 261.106 C 378.051 260.938 377.452 260.737 376.819 260.515 C 376.185 260.293 375.516 260.05 374.838 259.797 C 374.159 259.544 373.47 259.282 372.795 259.021 C 372.12 258.76 371.459 258.501 370.837 258.255 C 370.215 258.009 369.631 257.776 369.111 257.567 C 368.591 257.358 368.133 257.174 367.764 257.025 C 367.394 256.876 367.113 256.763 366.943 256.696 C 364.438 255.684 362.007 254.498 359.652 253.16 C 357.297 251.823 355.019 250.334 352.82 248.715 C 350.621 247.096 348.503 245.347 346.466 243.49 C 344.43 241.633 342.476 239.668 340.609 237.617 C 338.741 235.566 336.959 233.428 335.266 231.226 C 333.573 229.024 331.968 226.757 330.455 224.447 C 328.942 222.137 327.521 219.784 326.195 217.41 C 324.869 215.036 323.638 212.641 322.505 210.247 C 322.139 209.374 321.789 208.494 321.454 207.609 C 321.119 206.724 320.799 205.834 320.492 204.938 C 320.186 204.043 319.892 203.142 319.61 202.239 C 319.328 201.335 319.057 200.427 318.796 199.516 C 318.535 198.606 318.284 197.692 318.04 196.776 C 317.796 195.86 317.56 194.942 317.33 194.023 C 317.1 193.104 316.876 192.183 316.656 191.263 C 316.436 190.342 316.221 189.421 316.008 188.5 C 315.985 188.401 315.961 188.303 315.938 188.204 C 315.915 188.105 315.891 188.007 315.868 187.908 C 315.845 187.809 315.821 187.71 315.798 187.611 C 315.774 187.512 315.751 187.413 315.727 187.314 C 315.703 187.215 315.68 187.116 315.657 187.016 C 315.634 186.916 315.61 186.816 315.587 186.716 C 315.563 186.616 315.54 186.515 315.516 186.415 C 315.492 186.314 315.468 186.213 315.444 186.111 C 315.273 185.337 315.119 184.566 314.978 183.798 C 314.837 183.03 314.711 182.264 314.596 181.499 C 314.481 180.735 314.38 179.971 314.289 179.208 C 314.198 178.445 314.118 177.682 314.048 176.918 C 313.978 176.154 313.917 175.389 313.865 174.621 C 313.812 173.854 313.768 173.084 313.73 172.311 C 313.692 171.538 313.661 170.762 313.635 169.981 C 313.609 169.2 313.588 168.415 313.571 167.625 C 313.486 165.287 313.33 163.006 313.095 160.776 C 312.861 158.547 312.548 156.37 312.149 154.242 C 311.75 152.115 311.265 150.036 310.686 148.003 C 310.107 145.97 309.435 143.982 308.661 142.037 C 307.887 140.091 307.011 138.188 306.027 136.324 C 305.042 134.46 303.948 132.634 302.737 130.844 C 301.526 129.053 300.199 127.298 298.747 125.575 C 297.295 123.852 295.718 122.161 294.009 120.499 C 293.944 120.43 293.88 120.361 293.815 120.293 C 293.75 120.224 293.686 120.156 293.621 120.087 C 293.556 120.018 293.491 119.949 293.426 119.88 C 293.361 119.811 293.296 119.742 293.231 119.673 C 293.166 119.603 293.101 119.534 293.035 119.465 C 292.969 119.396 292.904 119.326 292.838 119.256 C 292.773 119.186 292.706 119.117 292.64 119.046 C 292.574 118.976 292.507 118.905 292.441 118.835 C 291.961 118.366 291.469 117.919 290.966 117.491 C 290.463 117.063 289.95 116.654 289.427 116.262 C 288.904 115.869 288.371 115.493 287.831 115.13 C 287.29 114.767 286.741 114.417 286.185 114.077 C 285.629 113.737 285.066 113.408 284.498 113.086 C 283.93 112.764 283.355 112.45 282.776 112.14 C 282.197 111.83 281.613 111.524 281.027 111.221 C 280.44 110.917 279.85 110.615 279.258 110.311 C 279.178 110.27 279.097 110.228 279.016 110.186 C 278.936 110.144 278.855 110.103 278.775 110.061 C 278.694 110.019 278.614 109.977 278.533 109.935 C 278.452 109.893 278.371 109.852 278.29 109.81 C 278.209 109.768 278.128 109.726 278.046 109.684 C 277.965 109.642 277.883 109.6 277.802 109.557 C 277.72 109.514 277.638 109.472 277.556 109.429 C 277.474 109.386 277.391 109.344 277.308 109.301 C 275.514 108.418 273.656 107.616 271.749 106.896 C 269.842 106.177 267.885 105.54 265.892 104.991 C 263.899 104.441 261.871 103.979 259.822 103.606 C 257.772 103.234 255.701 102.952 253.622 102.764 C 251.543 102.576 249.455 102.482 247.374 102.486 C 245.293 102.49 243.217 102.591 241.162 102.792 C 239.106 102.994 237.071 103.297 235.069 103.704 C 233.067 104.111 231.099 104.623 229.179 105.244 C 227.44 105.905 225.722 106.642 224.034 107.451 C 222.345 108.26 220.686 109.14 219.063 110.088 C 217.44 111.036 215.854 112.052 214.311 113.131 C 212.768 114.21 211.269 115.354 209.821 116.557 C 208.373 117.76 206.977 119.023 205.64 120.343 C 204.302 121.662 203.023 123.038 201.81 124.465 C 200.597 125.892 199.45 127.372 198.376 128.9 C 197.302 130.428 196.302 132.004 195.383 133.624 C 195.034 134.207 194.729 134.717 194.457 135.165 C 194.185 135.613 193.946 135.999 193.729 136.334 C 193.512 136.669 193.319 136.953 193.137 137.197 C 192.955 137.441 192.786 137.645 192.618 137.821 C 192.45 137.996 192.284 138.142 192.109 138.27 C 191.934 138.398 191.75 138.508 191.546 138.61 C 191.343 138.713 191.121 138.808 190.868 138.907 C 190.616 139.006 190.333 139.108 190.011 139.225 C 189.742 139.228 189.479 139.226 189.221 139.221 C 188.963 139.215 188.71 139.205 188.46 139.19 C 188.21 139.176 187.963 139.157 187.718 139.134 C 187.473 139.111 187.23 139.085 186.988 139.054 C 186.746 139.023 186.504 138.988 186.261 138.949 C 186.018 138.91 185.774 138.867 185.528 138.821 C 185.282 138.775 185.033 138.724 184.78 138.671 C 184.527 138.617 184.27 138.56 184.008 138.499 C 183.327 138.365 182.647 138.244 181.968 138.134 C 181.288 138.024 180.609 137.925 179.93 137.836 C 179.251 137.747 178.572 137.668 177.892 137.596 C 177.212 137.525 176.532 137.461 175.852 137.405 C 175.172 137.349 174.49 137.299 173.808 137.253 C 173.126 137.208 172.443 137.168 171.759 137.131 C 171.075 137.094 170.389 137.06 169.701 137.028 C 169.014 136.996 168.324 136.966 167.633 136.936 C 167.517 136.93 167.401 136.925 167.285 136.92 C 167.169 136.915 167.053 136.909 166.937 136.904 C 166.821 136.898 166.705 136.893 166.588 136.888 C 166.472 136.883 166.355 136.877 166.239 136.872 C 166.122 136.867 166.005 136.861 165.888 136.855 C 165.771 136.85 165.654 136.844 165.536 136.839 C 165.418 136.833 165.3 136.828 165.181 136.823 C 165.062 136.817 164.943 136.812 164.824 136.806 C 164.54 136.793 164.256 136.78 163.972 136.767 C 163.688 136.754 163.404 136.741 163.12 136.728 C 162.836 136.715 162.552 136.702 162.268 136.689 C 161.984 136.676 161.7 136.663 161.416 136.651 C 161.132 136.639 160.848 136.626 160.564 136.613 C 160.28 136.6 159.996 136.588 159.712 136.575 C 159.428 136.562 159.144 136.55 158.86 136.538 C 158.576 136.526 158.292 136.513 158.008 136.501 C 158.069 135.769 158.149 135.062 158.248 134.375 C 158.347 133.688 158.466 133.021 158.603 132.37 C 158.74 131.719 158.895 131.082 159.068 130.457 C 159.241 129.831 159.433 129.216 159.643 128.606 C 159.853 127.997 160.08 127.393 160.326 126.789 C 160.572 126.186 160.835 125.583 161.116 124.977 C 161.397 124.37 161.695 123.76 162.011 123.141 C 162.326 122.522 162.659 121.893 163.008 121.251 C 163.058 121.158 163.108 121.065 163.159 120.971 C 163.209 120.878 163.26 120.784 163.31 120.691 C 163.36 120.597 163.411 120.504 163.462 120.41 C 163.513 120.316 163.563 120.222 163.614 120.128 C 163.665 120.034 163.716 119.94 163.767 119.845 C 163.818 119.751 163.869 119.656 163.92 119.561 C 163.971 119.466 164.022 119.371 164.074 119.275 C 164.126 119.179 164.177 119.084 164.229 118.988 C 164.677 118.18 165.134 117.386 165.601 116.604 C 166.068 115.822 166.544 115.051 167.031 114.292 C 167.517 113.532 168.014 112.784 168.521 112.044 C 169.028 111.305 169.546 110.575 170.075 109.854 C 170.604 109.132 171.145 108.418 171.697 107.712 C 172.249 107.005 172.814 106.306 173.391 105.611 C 173.968 104.916 174.558 104.228 175.16 103.543 C 175.763 102.859 176.378 102.178 177.008 101.501 C 177.113 101.386 177.219 101.27 177.324 101.155 C 177.43 101.039 177.535 100.924 177.64 100.808 C 177.746 100.692 177.851 100.577 177.957 100.461 C 178.063 100.345 178.169 100.229 178.275 100.113 C 178.381 99.996 178.487 99.88 178.594 99.763 C 178.701 99.646 178.808 99.529 178.915 99.412 C 179.022 99.294 179.129 99.177 179.237 99.059 C 179.345 98.941 179.453 98.823 179.561 98.704 C 180.621 97.592 181.852 96.423 183.205 95.225 C 184.558 94.027 186.033 92.8 187.578 91.572 C 189.123 90.345 190.739 89.116 192.375 87.915 C 194.011 86.714 195.667 85.54 197.293 84.422 C 198.918 83.304 200.514 82.242 202.028 81.263 C 203.542 80.284 204.975 79.389 206.277 78.606 C 207.579 77.823 208.748 77.152 209.736 76.621 C 210.723 76.09 211.528 75.7 212.1 75.478 C 213.437 75.048 214.755 74.635 216.061 74.241 C 217.367 73.846 218.661 73.47 219.949 73.115 C 221.237 72.759 222.517 72.424 223.797 72.113 C 225.077 71.801 226.355 71.512 227.639 71.249 C 228.923 70.986 230.211 70.748 231.509 70.538 C 232.808 70.328 234.117 70.145 235.442 69.993 C 236.767 69.841 238.108 69.719 239.471 69.629 C 240.834 69.539 242.218 69.482 243.629 69.46 L 243.629 69.46 L 243.629 69.461 L 243.629 69.462 Z" style="fill:#4a3f35; stroke:#4a3f35; stroke-width: 1; paint-order: fill;"/><path d="M 381.008 290.503 C 381.091 290.544 381.173 290.586 381.256 290.627 C 381.338 290.668 381.421 290.71 381.504 290.751 C 381.587 290.793 381.669 290.834 381.752 290.875 C 381.835 290.916 381.918 290.957 382.002 290.999 C 382.085 291.04 382.168 291.082 382.252 291.124 C 382.336 291.166 382.419 291.207 382.503 291.249 C 382.587 291.291 382.671 291.333 382.756 291.375 C 382.84 291.417 382.925 291.459 383.009 291.502 C 382.344 292.322 381.675 293.115 381 293.886 C 380.325 294.656 379.643 295.404 378.953 296.13 C 378.263 296.856 377.563 297.562 376.853 298.25 C 376.142 298.937 375.42 299.606 374.684 300.259 C 373.948 300.913 373.198 301.55 372.431 302.174 C 371.664 302.798 370.881 303.409 370.078 304.009 C 369.275 304.61 368.453 305.199 367.61 305.78 C 366.766 306.361 365.9 306.934 365.01 307.502 C 364.928 307.461 364.845 307.42 364.762 307.378 C 364.68 307.337 364.597 307.295 364.515 307.254 C 364.433 307.212 364.35 307.171 364.267 307.13 C 364.184 307.089 364.101 307.048 364.017 307.006 C 363.934 306.965 363.851 306.923 363.767 306.881 C 363.683 306.839 363.6 306.798 363.516 306.756 C 363.432 306.714 363.348 306.672 363.263 306.629 C 363.179 306.587 363.094 306.544 363.01 306.502 C 363.088 306.441 363.167 306.38 363.246 306.32 C 363.325 306.259 363.404 306.199 363.482 306.138 C 363.561 306.078 363.64 306.017 363.719 305.956 C 363.798 305.895 363.877 305.834 363.956 305.773 C 364.035 305.712 364.115 305.651 364.194 305.589 C 364.273 305.528 364.353 305.466 364.433 305.405 C 364.513 305.343 364.593 305.282 364.674 305.22 C 364.754 305.158 364.835 305.096 364.916 305.033 C 365.636 304.47 366.349 303.902 367.054 303.331 C 367.76 302.76 368.458 302.184 369.15 301.605 C 369.842 301.025 370.528 300.44 371.208 299.85 C 371.888 299.26 372.562 298.664 373.23 298.063 C 373.898 297.461 374.561 296.853 375.219 296.238 C 375.877 295.623 376.529 295.002 377.176 294.373 C 377.823 293.744 378.467 293.107 379.105 292.462 C 379.744 291.817 380.378 291.164 381.009 290.502 L 381.009 290.502 Z" style="fill:#4a3f35; stroke:#4a3f35; stroke-width: 1; paint-order: fill;"/></g></svg>